<?xml version="1.0" standalone="no"?>
<!DOCTYPE svg PUBLIC "-//W3C//DTD SVG 20010904//EN"
 "http://www.w3.org/TR/2001/REC-SVG-20010904/DTD/svg10.dtd">
<svg version="1.0" xmlns="http://www.w3.org/2000/svg"
 width="300.000000pt" height="300.000000pt" viewBox="0 0 300.000000 300.000000"
 preserveAspectRatio="xMidYMid meet">
<metadata>
Created by potrace 1.11, written by Peter Selinger 2001-2013
</metadata>
<g transform="translate(0.000000,300.000000) scale(0.100000,-0.100000)"
fill="#000000" stroke="none">
<path d="M1997 2959 c-11 -6 -37 -8 -67 -4 -107 15 -189 -33 -224 -131 -8 -21
-18 -38 -22 -37 -5 1 -29 10 -54 19 -25 9 -58 13 -75 10 -16 -3 -46 -8 -65
-10 -81 -11 -140 -42 -140 -73 0 -10 5 -11 19 -3 61 32 179 -9 214 -74 l17
-31 -23 28 c-47 56 -115 78 -194 63 l-43 -8 0 -74 c0 -41 2 -74 5 -74 2 0 15
11 28 24 30 30 87 42 130 28 31 -10 30 -10 -21 -11 -96 -2 -138 -42 -129 -122
7 -63 21 -112 50 -172 114 -239 116 -244 86 -318 -11 -30 -22 -58 -24 -64 -1
-5 -11 -30 -22 -55 -29 -65 -36 -90 -24 -90 5 0 13 5 17 11 10 17 381 -2 509
-26 87 -16 164 -47 200 -80 22 -19 32 -32 23 -29 -10 3 -18 9 -18 13 0 18
-152 75 -225 85 -22 2 -85 8 -139 11 -54 4 -111 9 -125 10 -70 9 -209 7 -227
-3 -12 -6 -23 -9 -26 -7 -2 2 -9 -4 -15 -14 -11 -17 -8 -19 40 -18 29 0 90 -7
137 -17 47 -9 130 -23 185 -31 55 -8 120 -19 145 -25 25 -6 55 -12 66 -14 24
-5 124 -54 124 -61 0 -3 -24 4 -52 16 -67 26 -200 59 -241 59 -18 1 -66 8
-107 16 -41 8 -84 16 -95 18 -11 1 -53 8 -93 15 -86 15 -131 9 -159 -22 -36
-40 -36 -45 4 -42 21 1 28 0 16 -2 -36 -7 -27 -20 29 -48 29 -15 60 -32 68
-39 20 -17 232 -86 263 -86 47 0 247 -74 247 -91 0 -5 -17 -1 -37 9 -64 32
-201 72 -246 72 -14 0 -28 4 -31 9 -3 4 -27 14 -53 21 -27 7 -61 19 -78 27
l-30 14 25 -20 c14 -11 30 -21 36 -21 6 0 21 -12 35 -26 13 -14 44 -40 68 -56
93 -65 203 -172 218 -214 27 -76 34 -106 28 -124 -4 -11 -10 -18 -14 -16 -4 3
-17 -15 -30 -39 -58 -109 -208 -161 -346 -120 -60 18 -90 32 -131 62 -17 13
-35 23 -40 23 -13 1 -134 115 -134 127 0 5 -9 18 -20 28 -10 9 -18 21 -17 25
3 10 -80 117 -127 162 -40 40 -59 49 -50 23 4 -8 9 -15 13 -15 16 0 151 -158
151 -177 0 -5 9 -20 20 -33 12 -13 17 -27 12 -32 -8 -8 -125 -53 -162 -62 -8
-3 -51 -16 -95 -29 -118 -38 -135 -38 -155 -3 -9 16 -22 32 -29 34 -10 3 -11
0 -1 -19 13 -23 16 -76 6 -86 -3 -3 -13 0 -22 8 -25 21 -42 20 -36 -3 4 -15 7
-16 13 -6 6 9 11 10 19 2 14 -14 20 -66 10 -79 -8 -11 -24 -62 -34 -107 -6
-25 -3 -27 72 -52 197 -64 490 -146 524 -146 21 0 38 -4 38 -8 0 -5 -29 -116
-65 -247 -36 -132 -65 -245 -65 -252 0 -8 14 -13 38 -13 l37 0 71 262 c69 256
71 262 100 271 16 5 103 40 194 78 91 37 293 118 450 179 157 62 290 114 295
116 6 2 65 -106 133 -241 124 -250 139 -270 171 -231 8 10 2 32 -27 92 -209
431 -206 423 -194 447 6 12 30 74 53 137 23 63 52 126 65 141 13 14 34 53 45
88 l22 63 21 -26 c21 -25 22 -25 74 -11 54 14 129 11 165 -7 12 -6 23 -5 35 4
14 11 15 10 8 -7 -5 -14 -4 -17 3 -10 8 8 5 23 -9 50 -11 22 -20 32 -20 23 0
-22 -21 -28 -40 -13 -8 7 -33 16 -54 20 -38 6 -39 6 -26 -12 14 -17 14 -17 -5
-2 -14 11 -26 14 -40 9 -28 -12 -35 -12 -35 0 0 6 9 10 19 10 11 0 23 5 27 11
4 8 -1 9 -16 4 -31 -10 -87 22 -96 54 -12 45 -10 86 6 99 13 12 13 13 0 6 -20
-11 36 65 71 96 24 20 48 78 129 305 l100 279 -2 166 -3 165 -35 17 c-19 9
-80 23 -135 31 -55 8 -172 27 -261 42 l-160 28 -17 39 c-26 58 -91 123 -150
148 -60 26 -191 38 -220 19z m-21 -266 c20 -24 54 -55 75 -68 58 -37 64 -56
36 -112 -17 -33 -23 -59 -20 -84 3 -22 -1 -49 -11 -67 -9 -17 -16 -51 -16 -75
0 -46 10 -60 89 -123 31 -25 32 -29 16 -40 -16 -12 -16 -14 9 -25 30 -14 33
-34 9 -61 -15 -17 -15 -21 -3 -29 8 -5 26 -12 40 -16 35 -8 110 -53 110 -65 0
-10 -14 -4 -40 17 -8 7 -39 20 -67 29 -29 10 -55 22 -58 27 -9 13 -21 11 -38
-5 -8 -8 -40 -23 -70 -34 l-56 -19 78 -17 c71 -15 153 -49 189 -78 27 -23 3
-17 -50 12 -30 16 -101 41 -159 54 -95 23 -371 59 -461 60 -21 1 -36 6 -35 11
2 6 15 9 28 9 62 -3 242 -24 252 -30 7 -4 -5 8 -25 25 -23 19 -42 48 -49 72
l-12 39 -57 0 c-56 0 -122 -20 -135 -40 -3 -5 -11 -10 -17 -10 -16 0 11 29 42
45 28 15 78 23 143 24 22 1 37 6 37 14 1 6 12 26 26 42 15 17 23 24 20 18 -4
-7 -3 -13 1 -13 5 0 15 6 22 13 11 10 12 9 6 -2 -5 -9 -4 -12 3 -7 18 11 14
51 -5 68 -10 9 -34 24 -53 33 -43 22 -55 38 -71 94 -7 25 -20 46 -29 48 -15 4
-44 58 -41 76 1 4 -5 18 -14 30 -21 30 -19 42 8 44 68 5 87 14 106 51 10 20
22 51 25 69 6 27 17 36 69 61 34 16 71 37 82 45 19 15 20 14 27 -25 4 -24 22
-58 44 -85z m-326 17 c-1 -19 -30 17 -30 37 0 7 -4 13 -10 13 -5 0 -10 6 -10
13 1 6 12 -1 25 -18 14 -16 25 -37 25 -45z m983 -45 c-12 -8 -36 -32 -54 -53
-17 -20 -27 -30 -23 -21 19 34 70 89 84 89 10 0 7 -5 -7 -15z m-1048 -75 c3
-6 -1 -7 -9 -4 -18 7 -21 14 -7 14 6 0 13 -4 16 -10z m1258 -50 l32 -33 -33
26 c-19 15 -43 28 -55 28 -69 5 -147 -4 -184 -21 -50 -22 -55 -20 -16 6 40 25
79 33 156 31 62 -2 70 -5 100 -37z m-1331 -50 c-41 -11 -89 -30 -109 -46 -29
-22 -33 -23 -24 -7 21 41 96 71 176 71 18 0 0 -8 -43 -18z m1232 -14 c18 -7
42 -26 54 -41 34 -42 26 -49 -10 -10 -30 33 -40 36 -118 46 -46 5 -87 12 -89
15 -11 11 133 2 163 -10z m-1154 -43 c0 -5 -21 -17 -48 -27 -26 -11 -66 -32
-89 -48 -24 -16 -43 -25 -43 -19 0 15 57 52 119 77 65 27 61 26 61 17z m37 1
c-3 -3 -12 -4 -19 -1 -8 3 -5 6 6 6 11 1 17 -2 13 -5z m1071 -69 c17 -19 32
-39 32 -45 0 -6 -14 5 -31 25 -17 19 -48 40 -70 46 -46 14 -43 31 4 18 17 -5
47 -24 65 -44z m-1098 -33 c0 -4 -14 -13 -32 -21 -17 -8 -49 -30 -70 -49 -21
-19 -38 -30 -38 -26 1 19 37 54 80 78 47 27 60 31 60 18z m65 -2 c3 -5 -7 -8
-25 -7 -16 1 -30 5 -30 10 0 11 48 9 55 -3z m940 -65 c14 -17 25 -40 25 -51 0
-14 -4 -11 -15 11 -9 17 -29 42 -47 57 -26 23 -27 26 -9 21 12 -3 33 -20 46
-38z m-859 -37 c1 -2 -25 -3 -59 -4 -63 0 -107 -18 -167 -68 -19 -16 -18 -13
5 12 35 39 69 59 122 70 31 7 87 1 99 -10z m781 -40 c-3 -8 -6 -5 -6 6 -1 11
2 17 5 13 3 -3 4 -12 1 -19z m10 -40 c-3 -8 -6 -5 -6 6 -1 11 2 17 5 13 3 -3
4 -12 1 -19z m-97 -59 c15 -28 5 -23 -15 7 -9 15 -12 23 -6 20 6 -4 16 -16 21
-27z m-116 -19 c33 -20 52 -47 41 -58 -3 -3 -5 0 -5 5 0 6 -19 25 -42 42 -48
35 -45 41 6 11z m-799 -90 c-3 -5 -11 -10 -16 -10 -6 0 -7 5 -4 10 3 6 11 10
16 10 6 0 7 -4 4 -10z m-17 -45 c-3 -3 -9 2 -12 12 -6 14 -5 15 5 6 7 -7 10
-15 7 -18z m292 -69 c249 -35 321 -54 389 -107 31 -25 17 -25 -17 0 -43 30
-155 60 -286 76 -66 8 -132 17 -146 20 -46 10 -219 18 -244 11 -13 -3 -32 -13
-40 -22 -9 -8 -16 -11 -16 -5 0 6 15 20 33 32 28 18 44 20 122 15 50 -2 142
-12 205 -20z m-160 -263 c14 -3 30 -9 35 -13 6 -5 24 -10 42 -13 17 -3 36 -7
40 -10 5 -3 29 -8 53 -12 117 -16 214 -63 259 -127 22 -31 21 -30 -20 9 -51
49 -114 78 -201 93 -35 6 -77 15 -94 21 -34 11 -29 9 -169 44 -134 34 -175 47
-175 55 0 4 46 -4 103 -18 56 -13 113 -26 127 -29z m491 -50 l24 -26 -27 19
c-15 10 -28 22 -28 27 0 12 5 8 31 -20z m-130 -200 c13 -16 12 -17 -3 -4 -10
7 -18 15 -18 17 0 8 8 3 21 -13z m-133 -42 c12 -11 22 -22 22 -26 0 -4 -6 -2
-13 4 -8 6 -17 8 -20 4 -4 -3 -7 2 -7 12 0 14 -3 15 -15 5 -13 -11 -14 -10 -9
4 8 20 14 20 42 -3z m452 -24 c63 -20 132 -38 153 -42 20 -3 37 -7 37 -9 0 -3
-22 -68 -36 -105 -3 -11 -10 -7 -23 15 -37 61 -93 100 -177 122 -44 12 -86 22
-92 22 -7 0 -12 9 -12 21 0 15 5 19 18 15 9 -2 69 -20 132 -39z"/>
<path d="M1757 2647 c-7 -19 23 -57 46 -57 6 0 1 -6 -13 -13 -34 -17 -39 -60
-8 -81 25 -18 38 -20 38 -7 0 5 -9 11 -20 14 -25 6 -36 33 -21 51 6 7 30 16
52 19 23 3 46 10 52 16 7 7 -2 9 -29 5 -31 -4 -36 -3 -21 6 9 6 17 16 17 22 0
7 -5 6 -14 -2 -24 -19 -59 -8 -66 20 -5 21 -7 22 -13 7z"/>
<path d="M1952 2559 c4 -31 31 -45 64 -34 15 6 29 16 32 23 3 11 -2 10 -20 -2
-30 -19 -58 -12 -58 15 0 10 -5 19 -11 19 -6 0 -9 -10 -7 -21z"/>
<path d="M1937 2404 c-10 -13 -32 -31 -48 -40 -28 -14 -32 -14 -50 2 -10 9
-19 23 -19 31 0 7 -4 13 -9 13 -14 0 -1 -37 20 -56 12 -11 27 -14 44 -10 31 8
102 70 89 78 -5 3 -17 -5 -27 -18z"/>
<path d="M1801 2156 c-7 -8 -8 -17 -3 -20 6 -3 13 1 16 10 9 23 2 28 -13 10z"/>
<path d="M2095 2078 c-11 -11 -29 -23 -39 -27 -11 -4 -15 -10 -10 -14 6 -3 23
5 39 19 15 13 37 24 48 24 11 0 17 3 13 7 -13 13 -31 10 -51 -9z"/>
<path d="M1787 2066 c-9 -7 -17 -17 -17 -21 0 -4 6 -2 14 4 7 6 22 9 32 5 11
-3 15 -2 9 3 -5 4 -12 11 -15 15 -3 3 -13 1 -23 -6z"/>
<path d="M2133 2050 c-18 -9 -30 -20 -26 -24 3 -3 1 -6 -4 -6 -6 0 -14 6 -16
13 -3 7 -6 4 -6 -6 -1 -11 -6 -15 -13 -11 -7 4 -8 3 -4 -4 4 -7 3 -12 -3 -12
-5 0 -15 8 -20 18 -6 9 -11 12 -11 7 0 -6 5 -16 12 -23 9 -9 9 -12 -1 -12 -7
0 -15 9 -18 20 -8 29 -39 21 -35 -8 2 -12 -2 -22 -7 -22 -6 0 -11 7 -11 15 0
8 -3 15 -7 15 -5 1 -29 3 -55 5 -27 2 -48 0 -48 -4 0 -5 -3 -18 -6 -28 -5 -15
-2 -14 14 4 22 25 39 19 19 -6 -10 -14 -10 -14 3 -5 8 6 23 14 34 18 15 5 17
2 13 -14 -3 -11 -1 -20 4 -20 5 0 9 8 9 18 1 16 1 16 13 0 11 -14 22 -16 56
-9 2 1 -2 8 -9 16 -7 9 -10 18 -7 21 3 3 11 -3 18 -13 12 -20 13 -19 58 4 25
14 57 35 71 49 28 28 27 28 -17 4z"/>
<path d="M1823 2033 c4 -3 1 -13 -6 -21 -11 -13 -9 -14 10 -2 22 14 22 30 1
30 -6 0 -8 -3 -5 -7z"/>
<path d="M2740 1536 c0 -2 7 -7 16 -10 8 -3 12 -2 9 4 -6 10 -25 14 -25 6z"/>
<path d="M2956 1513 c-6 -14 -5 -15 5 -6 7 7 10 15 7 18 -3 3 -9 -2 -12 -12z"/>
<path d="M2927 1489 c4 -13 8 -18 11 -10 2 7 -1 18 -6 23 -8 8 -9 4 -5 -13z"/>
<path d="M827 1473 c-4 -3 -7 -17 -7 -30 0 -25 55 -67 73 -56 5 3 -5 12 -22
19 -28 12 -36 27 -32 62 2 13 -2 15 -12 5z"/>
<path d="M906 1454 c-8 -21 13 -82 31 -88 7 -3 12 0 10 6 -1 6 4 13 11 15 6 3
12 -3 12 -12 0 -9 5 -13 10 -10 8 5 7 11 0 20 -6 8 -11 22 -10 32 4 34 0 37
-16 15 -22 -32 -38 -28 -30 8 6 31 -7 42 -18 14z"/>
<path d="M775 1371 c-39 -16 -111 -53 -150 -78 -11 -7 -39 -21 -62 -32 -67
-32 -102 -62 -114 -98 -6 -19 -9 -36 -6 -39 5 -6 47 62 47 77 0 5 6 9 14 9 8
0 16 6 19 14 3 8 19 17 35 21 16 3 39 15 50 25 12 11 28 20 36 20 8 0 21 6 28
13 7 7 36 23 63 35 94 42 110 51 95 50 -8 0 -33 -8 -55 -17z"/>
<path d="M2860 1311 c0 -5 -16 -12 -35 -15 -47 -9 -69 -43 -57 -88 5 -18 7
-39 5 -45 -3 -7 1 -13 7 -13 7 0 10 -7 6 -15 -3 -8 -2 -14 2 -13 12 2 42 -14
42 -23 0 -5 -7 -9 -17 -9 -9 0 -14 -3 -10 -6 8 -8 79 16 96 34 13 12 16 12 28
-4 15 -20 18 -7 3 16 -6 10 -4 20 5 30 8 8 13 33 12 56 -2 32 -9 47 -37 72
-35 32 -50 39 -50 23z"/>
<path d="M270 1186 c0 -23 68 -76 98 -75 26 0 26 1 -8 15 -19 8 -44 28 -55 44
-22 32 -35 38 -35 16z"/>
<path d="M241 1176 c-11 -13 -11 -20 3 -41 22 -33 71 -58 98 -49 21 6 20 7 -8
22 -32 16 -55 37 -70 65 -9 16 -12 17 -23 3z"/>
<path d="M197 1153 c-22 -21 9 -75 61 -105 28 -17 30 -17 46 1 15 16 14 18
-11 31 -39 19 -73 51 -73 67 0 14 -12 17 -23 6z"/>
<path d="M152 1132 c-9 -6 -5 -15 14 -33 28 -25 74 -113 73 -139 0 -8 -13 12
-28 45 -29 61 -85 125 -98 111 -5 -4 -1 -13 8 -19 31 -23 59 -81 59 -124 0
-24 -5 -43 -11 -43 -5 0 -7 5 -4 10 23 38 -43 160 -86 160 -25 0 -24 -2 10
-39 31 -33 52 -96 41 -126 -5 -14 -8 -5 -12 28 -6 51 -50 119 -82 125 -14 3
-16 -10 -16 -103 l0 -107 110 4 c70 2 114 7 121 15 7 7 16 38 19 68 l6 54 -43
32 c-29 20 -46 41 -50 60 -6 31 -10 34 -31 21z"/>
<path d="M2630 1129 c0 -5 5 -7 10 -4 6 3 10 8 10 11 0 2 -4 4 -10 4 -5 0 -10
-5 -10 -11z"/>
<path d="M2664 1046 c14 -19 46 -55 71 -81 24 -26 42 -51 39 -57 -9 -14 16
-38 42 -38 23 0 54 -23 54 -40 0 -10 -60 -45 -71 -42 -4 1 -5 -7 -2 -17 6 -22
30 -36 98 -56 87 -26 85 -27 85 75 0 76 -3 90 -16 90 -9 0 -18 9 -21 20 -3 12
-18 27 -34 36 -17 8 -29 23 -29 34 0 15 -7 20 -29 20 -16 0 -36 7 -45 15 -20
21 -29 19 -23 -5 6 -23 -2 -25 -34 -7 -38 20 -69 50 -62 60 3 6 1 7 -5 3 -7
-4 -12 -1 -12 8 0 9 -7 16 -16 16 -13 0 -11 -7 10 -34z"/>
<path d="M385 988 c-8 -28 -15 -72 -14 -97 1 -44 1 -44 10 -16 8 28 13 54 26
133 8 49 -4 38 -22 -20z"/>
<path d="M351 737 c-6 -14 -40 -137 -76 -274 -61 -231 -65 -248 -48 -260 9 -7
24 -11 33 -8 9 3 30 -1 46 -9 16 -8 63 -20 104 -27 41 -6 83 -19 93 -27 9 -8
17 -10 17 -5 0 6 -7 16 -15 23 -8 7 -15 19 -15 26 0 11 -11 13 -42 9 l-43 -5
43 11 c23 6 42 15 42 21 0 6 -7 7 -17 2 -25 -11 -137 -6 -141 6 -2 5 -11 10
-20 10 -14 -1 -12 -5 7 -20 25 -22 17 -27 -10 -7 -15 12 -15 20 1 117 10 58
16 108 14 112 -2 4 0 9 5 12 4 3 9 25 9 48 1 44 5 81 22 198 10 70 6 88 -9 47z
m42 -554 c-7 -2 -19 -2 -25 0 -7 3 -2 5 12 5 14 0 19 -2 13 -5z"/>
<path d="M280 172 c0 -5 20 -16 44 -23 49 -14 147 -76 154 -97 2 -7 -19 4 -47
26 -46 34 -156 80 -167 69 -2 -2 14 -12 37 -22 47 -22 91 -69 83 -90 -5 -12 8
-15 75 -15 79 0 81 1 87 26 11 45 -37 80 -143 102 -48 11 -96 23 -105 27 -10
4 -18 3 -18 -3z"/>
<path d="M237 124 c-4 -4 8 -14 26 -24 17 -9 41 -31 52 -48 22 -35 55 -43 55
-14 0 22 -32 53 -77 76 -35 17 -46 19 -56 10z"/>
<path d="M140 92 c-8 -4 -30 -18 -48 -31 -45 -35 -28 -41 111 -41 116 0 118 0
107 21 -25 46 -118 74 -170 51z"/>
</g>
</svg>
